Coordinates
version=1
nRows=11
nColumns=33
inDegrees=yes

Units are S.I. units (second, meters, Newtons, ...)
Angles are in degrees.

endheader
time	ground_thorax_rot_x	ground_thorax_rot_y	ground_thorax_rot_z	ground_thorax_tx	ground_thorax_ty	ground_thorax_tz	clav_prot_r	clav_elev_r	scapula_abduction_r	scapula_elevation_r	scapula_upward_rot_r	scapula_winging_r	shoulder_elv_r	plane_of_elev_r	axial_rot_r	elbow_flexion_r	pro_sup_r	wrist_flex_r	wrist_dev_r	clav_prot_l	clav_elev_l	scapula_abduction_l	scapula_elevation_l	scapula_upward_rot_l	scapula_winging_l	shoulder_elv_l	plane_of_elev_l	axial_rot_l	elbow_flexion_l	pro_sup_l	wrist_flex_l	wrist_dev_l	
9.0600	-90.000000	90.000000	-90.000000	-2.980469	805.400101	-34.586654	27.571937	36.937403	45.000000	45.000000	10.118334	2129.641783	2988.634363	29.679432	-53.877862	2519.450717	170.502534	11.857344	14.665609	-45.000000	27.711543	42.572073	-19.564265	45.000000	2628.367111	-5453.986851	141.825232	54.023679	1429.214083	-313.521938	13.746895	-15.337511	
9.0700	-90.000000	90.000000	-90.000000	-1.058460	803.916258	-34.429752	27.478161	36.987863	45.000000	45.000000	10.070660	2129.357369	2988.603303	29.739142	-53.935863	2519.498935	170.812389	11.811578	14.603718	-45.000000	27.973549	42.645531	-19.756415	45.000000	2628.451996	-5453.991635	141.821403	54.043300	1429.203200	-313.445381	13.675444	-15.230154	
9.0800	-90.000000	90.000000	-90.000000	0.827030	802.427396	-34.262610	27.383391	37.037647	45.000000	45.000000	10.028464	2129.078383	2988.573718	29.802502	-53.971364	2519.548913	171.104801	11.766613	14.541780	-45.000000	28.246668	42.716121	-19.961495	45.000000	2628.543464	-5453.996294	141.813337	54.049186	1429.193368	-313.364383	13.600661	-15.130388	
9.0900	-90.000000	90.000000	-90.000000	2.677978	800.931199	-34.086692	27.287881	37.086314	45.000000	45.000000	9.987923	2128.807314	2988.545506	29.868422	-53.984826	2519.600344	171.381356	11.721632	14.481370	-45.000000	28.532462	42.785427	-20.182090	45.000000	2628.643974	-5454.001785	141.797447	54.041541	1429.185115	-313.287254	13.525616	-15.038458	
9.1000	-90.000000	90.000000	-90.000000	4.497932	799.424950	-33.904221	27.192632	37.133421	45.000000	45.000000	9.949635	2128.541016	2988.520827	29.939068	-53.976382	2519.655159	171.642932	11.675612	14.420587	-45.000000	28.832907	42.851383	-20.423140	45.000000	2628.761190	-5454.007943	141.768340	54.015896	1429.184807	-313.223587	13.446186	-14.950419	
9.1100	-90.000000	90.000000	-90.000000	6.290508	797.906416	-33.717927	27.098109	37.179026	45.000000	45.000000	9.911097	2128.284885	2988.497990	30.011482	-53.947498	2519.709274	171.889359	11.629412	14.361577	-45.000000	29.150151	42.918415	-20.683709	45.000000	2628.887251	-5454.018198	141.732660	53.971614	1429.186240	-313.181453	13.367953	-14.865826	
9.1200	-90.000000	90.000000	-90.000000	8.058728	796.373887	-33.530517	27.005283	37.223282	45.000000	45.000000	9.876037	2128.038802	2988.476813	30.085753	-53.899075	2519.759450	172.120286	11.584855	14.302322	-45.000000	29.490914	42.988039	-20.962613	45.000000	2629.017132	-5454.033122	141.694485	53.904609	1429.189884	-313.168832	13.288082	-14.780573	
9.1300	-90.000000	90.000000	-90.000000	9.804101	794.827568	-33.344373	26.913785	37.266481	45.000000	45.000000	9.841851	2127.806264	2988.456904	30.159381	-53.829824	2519.805085	172.334373	11.541608	14.245384	-45.000000	29.853809	43.062476	-21.257756	45.000000	2629.146724	-5454.055454	141.657275	53.816000	1429.189719	-313.190217	13.212930	-14.695369	
9.1400	-90.000000	90.000000	-90.000000	11.527310	793.268795	-33.161013	26.823927	37.308923	45.000000	45.000000	9.813384	2127.584251	2988.440023	30.234708	-53.739279	2519.845877	172.529045	11.500023	14.189103	-45.000000	30.239637	43.140711	-21.569464	45.000000	2629.279512	-5454.083015	141.618875	53.703868	1429.189963	-313.248317	13.138898	-14.607441	
9.1500	-90.000000	90.000000	-90.000000	13.228822	791.702392	-32.981648	26.734889	37.351637	45.000000	45.000000	9.790325	2127.376429	2988.427073	30.309199	-53.624806	2519.883493	172.701327	11.459077	14.136672	-45.000000	30.648937	43.226947	-21.894226	45.000000	2629.408597	-5454.119485	141.585057	53.569452	1429.186793	-313.337658	13.075177	-14.519503	
9.1600	-90.000000	90.000000	-90.000000	14.910158	790.135343	-32.806865	26.646608	37.395488	45.000000	45.000000	9.777498	2127.178392	2988.418243	30.385540	-53.485733	2519.917854	172.847568	11.419128	14.085414	-45.000000	31.084133	43.322648	-22.228441	45.000000	2629.536428	-5454.159163	141.549299	53.409547	1429.193363	-313.446647	13.018017	-14.429509	
